<svg xmlns="http://www.w3.org/2000/svg" viewBox="0 0 51.714 51.714" width="512" height="512"><path d="M41.387 25.858c5.417-4.781 8.714-9.718 6.861-12.929-.604-1.045-2.055-2.29-5.549-2.29-2.486 0-5.625.638-9.074 1.784C32.194 5.333 29.566 0 25.856 0c-3.709 0-6.337 5.333-7.769 12.423-3.449-1.146-6.588-1.784-9.073-1.784-3.494 0-4.946 1.246-5.55 2.291-1.854 3.212 1.448 8.151 6.869 12.934-1.229 1.093-2.353 2.189-3.323 3.271-3.628 4.05-4.855 7.388-3.548 9.651.604 1.045 2.057 2.29 5.551 2.29 2.486 0 5.626-.638 9.075-1.784 1.431 7.09 4.059 12.422 7.768 12.422 3.71 0 6.337-5.332 7.768-12.421 3.449 1.146 6.588 1.784 9.075 1.784h.002c3.493 0 4.945-1.245 5.549-2.29 1.854-3.21-1.445-8.147-6.863-12.929zM42.7 12.28c1.496 0 3.427.255 4.126 1.469 1.149 1.99-1.36 6.284-6.715 11.018a67.723 67.723 0 00-5.402-4.021 67.256 67.256 0 00-.783-6.702c3.354-1.133 6.392-1.764 8.774-1.764zM29.55 32.254a74.243 74.243 0 01-3.695 1.993 74.999 74.999 0 01-3.693-1.992 73.878 73.878 0 01-3.577-2.211 75.361 75.361 0 010-8.377 76.11 76.11 0 013.578-2.208 74.999 74.999 0 013.693-1.992 74.69 74.69 0 013.695 1.993 73.878 73.878 0 013.577 2.211 75.325 75.325 0 010 8.372 74.409 74.409 0 01-3.578 2.211zm3.434-.16a61.38 61.38 0 01-.632 5.018 63.12 63.12 0 01-4.655-1.965 76.762 76.762 0 002.673-1.469 74.457 74.457 0 002.614-1.584zm-8.971 3.052a62.674 62.674 0 01-4.654 1.965 60.877 60.877 0 01-.631-5.017 76.011 76.011 0 002.614 1.584c.888.513 1.78 1.001 2.671 1.468zM16.891 28.9a61.49 61.49 0 01-4.025-3.049 61.974 61.974 0 014.025-3.039c-.041 1.015-.064 2.033-.064 3.045s.023 2.028.064 3.043zm1.837-9.277c.152-1.779.367-3.456.632-5.02 1.51.564 3.07 1.222 4.655 1.965a76.8 76.8 0 00-2.674 1.469 78.728 78.728 0 00-2.613 1.586zm8.969-3.055a62.692 62.692 0 014.655-1.965c.265 1.564.48 3.24.632 5.018a75.942 75.942 0 00-2.613-1.583 74.337 74.337 0 00-2.674-1.47zm7.124 6.247a61.399 61.399 0 014.016 3.042 61.755 61.755 0 01-4.016 3.042c.041-1.014.064-2.03.064-3.042s-.023-2.028-.064-3.042zM25.856 1.641c2.301 0 4.774 4.313 6.196 11.332a65.273 65.273 0 00-6.196 2.659 65.532 65.532 0 00-6.196-2.659c1.422-7.019 3.895-11.332 6.196-11.332zM4.885 13.75c.701-1.215 2.632-1.47 4.128-1.47 2.381 0 5.419.631 8.773 1.764a67.423 67.423 0 00-.783 6.694 64.798 64.798 0 00-5.405 4.027C6.245 20.033 3.736 15.74 4.885 13.75zm4.129 25.684h-.002c-1.496 0-3.426-.255-4.128-1.47-.878-1.521.374-4.412 3.35-7.734.973-1.086 2.111-2.189 3.359-3.288a67.509 67.509 0 005.41 4.028c.157 2.302.419 4.564.783 6.701-3.354 1.133-6.391 1.764-8.772 1.763zm16.842 10.639c-2.301 0-4.774-4.312-6.196-11.331a65.502 65.502 0 006.195-2.658 65.273 65.273 0 006.196 2.659c-1.421 7.018-3.895 11.33-6.195 11.33zm20.971-12.108c-.701 1.215-2.631 1.47-4.128 1.47h-.001c-2.382 0-5.419-.631-8.772-1.764.365-2.137.626-4.399.783-6.701a67.09 67.09 0 005.403-4.022c5.355 4.734 7.864 9.027 6.715 11.017zM25.855 21.753a4.109 4.109 0 00-4.104 4.104 4.11 4.11 0 004.104 4.104 4.107 4.107 0 004.104-4.104 4.108 4.108 0 00-4.104-4.104zm0 6.567c-1.357 0-2.462-1.105-2.462-2.463s1.105-2.462 2.462-2.462a2.465 2.465 0 012.463 2.462 2.465 2.465 0 01-2.463 2.463z" fill="#e84545"/></svg>