<svg xmlns="http://www.w3.org/2000/svg" width="512" height="512"><path d="M502.691 268.591a9.31 9.31 0 00-9.309 9.309v196.864H18.618V278.109a9.31 9.31 0 00-18.618 0v205.009c0 5.141 5.332 10.264 10.473 10.264h493.382c5.141 0 8.145-5.123 8.145-10.264V277.9a9.31 9.31 0 00-9.309-9.309z" fill="#ec6161"/><path d="M485.264 102.4h-456.2C13.677 102.4 0 113.777 0 129.191v65.077c0 24.955 19.464 49.395 43.568 55.641L223.177 296.4c10.509 2.727 24.068 4.082 37.55 4.082 14.127 0 28.404-1.486 39.409-4.45l169.546-45.791C493.718 243.768 512 219.182 512 194.268v-65.077c0-15.414-11.35-26.791-26.736-26.791zm8.118 91.868c0 16.35-12.737 33.75-28.5 37.991L295.077 278.05c-18.209 4.9-48.855 5.059-67.082.332L48.168 231.886c-15.741-4.077-29.55-21.305-29.55-37.618v-65.077c0-5.15 5.327-8.173 10.445-8.173h456.2c5.118 0 8.118 3.023 8.118 8.173v65.077zM336.341 18.618H177.986c-15.373 0-29.041 11.355-29.041 26.745v37.255a9.31 9.31 0 0018.618 0V45.364c0-5.123 5.318-8.127 10.423-8.127h158.355c5.104 0 8.095 3.005 8.095 8.127v37.255a9.31 9.31 0 0018.618 0V45.364c.001-15.391-11.34-26.746-26.713-26.746zm-27.977 307.2h-93.091a9.31 9.31 0 000 18.618h93.091a9.31 9.31 0 000-18.618z" fill="#ec6161"/></svg>