<svg xmlns="http://www.w3.org/2000/svg" viewBox="0 0 492.291 492.291" width="512" height="512"><path fill="#ec6161" d="M176.021 472.599h140.258v19.692H176.021zm-22.508-40.547h185.275v19.692H153.513zM365.06 47.592C330.647 14.775 285.493-1.961 237.82.183 151.117 4.27 79.233 75.327 74.156 161.952c-2.327 39.635 8.519 77.582 31.375 109.731 27.433 38.601 43.606 81.918 46.779 125.26l.663 9.13H339.3l.596-9.207c2.962-45.596 17.904-87.173 43.221-120.24 23.115-30.192 35.327-66.269 35.327-104.341 0-47.568-18.961-91.852-53.384-124.693zm2.423 217.062c-25.962 33.913-41.942 75.837-46.481 121.726H171.108c-4.904-43.846-21.923-87.264-49.519-126.106-20.231-28.457-29.837-62.058-27.779-97.168 4.5-76.707 68.163-139.63 144.933-143.25 42.048-1.99 82.25 12.914 112.721 41.986 30.49 29.091 47.288 68.312 47.288 110.442 0 33.707-10.817 65.649-31.269 92.37z"/></svg>